<svg width="200" height="200" viewBox="0 0 200 200" xmlns="http://www.w3.org/2000/svg">
  <defs>
    <pattern id="ornate-pattern" x="0" y="0" width="50" height="50" patternUnits="userSpaceOnUse">
      <path d="M10 25 Q15 20, 20 25 Q25 30, 30 25 Q35 20, 40 25" 
            fill="none" stroke="#8B4513" stroke-width="1" opacity="0.6"/>
      <circle cx="25" cy="25" r="2" fill="#8B4513" opacity="0.4"/>
    </pattern>
  </defs>
  
  <!-- Corner decorations -->
  <g transform="translate(10, 10)">
    <path d="M0 20 Q10 10, 20 20 Q30 30, 40 20" 
          fill="none" stroke="#8B4513" stroke-width="2"/>
    <circle cx="20" cy="20" r="3" fill="#8B4513"/>
  </g>
  
  <g transform="translate(150, 10)">
    <path d="M0 20 Q10 10, 20 20 Q30 30, 40 20" 
          fill="none" stroke="#8B4513" stroke-width="2"/>
    <circle cx="20" cy="20" r="3" fill="#8B4513"/>
  </g>
  
  <g transform="translate(10, 150)">
    <path d="M0 20 Q10 10, 20 20 Q30 30, 40 20" 
          fill="none" stroke="#8B4513" stroke-width="2"/>
    <circle cx="20" cy="20" r="3" fill="#8B4513"/>
  </g>
  
  <g transform="translate(150, 150)">
    <path d="M0 20 Q10 10, 20 20 Q30 30, 40 20" 
          fill="none" stroke="#8B4513" stroke-width="2"/>
    <circle cx="20" cy="20" r="3" fill="#8B4513"/>
  </g>
  
  <!-- Border pattern -->
  <rect x="0" y="0" width="200" height="200" fill="url(#ornate-pattern)" opacity="0.1"/>
</svg> 